<?xml version="1.0" encoding="UTF-8" standalone="no"?>
<svg
   version="1.0"
   width="512.000000pt"
   height="512.000000pt"
   viewBox="0 0 512.000000 512.000000"
   preserveAspectRatio="xMidYMid meet"
   id="svg1436"
   sodipodi:docname="wheelchair.svg"
   inkscape:version="1.2.2 (732a01da63, 2022-12-09, custom)"
   xmlns:inkscape="http://www.inkscape.org/namespaces/inkscape"
   xmlns:sodipodi="http://sodipodi.sourceforge.net/DTD/sodipodi-0.dtd"
   xmlns="http://www.w3.org/2000/svg"
   xmlns:svg="http://www.w3.org/2000/svg">
  <defs
     id="defs1440" />
  <sodipodi:namedview
     id="namedview1438"
     pagecolor="#505050"
     bordercolor="#eeeeee"
     borderopacity="1"
     inkscape:showpageshadow="0"
     inkscape:pageopacity="0"
     inkscape:pagecheckerboard="0"
     inkscape:deskcolor="#505050"
     inkscape:document-units="pt"
     showgrid="false"
     inkscape:zoom="0.59545898"
     inkscape:cx="63.816318"
     inkscape:cy="400.53137"
     inkscape:window-width="1920"
     inkscape:window-height="1016"
     inkscape:window-x="0"
     inkscape:window-y="0"
     inkscape:window-maximized="1"
     inkscape:current-layer="g1434" />
  <g
     transform="translate(0.000000,512.000000) scale(0.100000,-0.100000)"
     fill="#000000"
     stroke="none"
     id="g1434">
    <circle
       style="opacity:1;fill:#ffffff;stroke:#ffffff;stroke-width:7.5e-08"
       id="path1857"
       cx="2698.1172"
       cy="-2599.9885"
       r="2436.6299"
       transform="scale(1,-1)" />
    <path
       d="m 2441.9883,2926.5262 c -3.7083,-139.5818 -56.0978,-586.6885 128.0806,-777.9561 16.1967,-3.2393 84.2226,-9.718 152.2485,-14.0371 l 123.0945,-6.4786 -7.5584,-62.6271 c -24.8349,-242.9497 -208.3969,-438.3892 -459.9848,-491.2982 -281.8216,-59.3878 -567.9624,118.7754 -652.185,404.9161 -22.6753,76.6642 -22.6753,227.8329 0,304.497 65.8664,224.5935 240.7902,375.7622 475.1017,410.315 l 79.9034,11.8776 v 141.4507 140.3709 l -77.7439,-7.5584 c -113.3765,-10.7978 -195.4395,-33.4731 -305.5767,-87.4619 -223.5137,-109.0574 -384.4004,-306.6565 -449.187,-550.686 -32.3933,-119.8552 -32.3933,-301.2576 0,-421.1128 63.7068,-242.9497 226.753,-442.7084 449.187,-550.686 141.4507,-69.1057 212.7159,-85.3023 372.5229,-85.3023 154.408,0 229.9924,16.1966 355.2464,75.5843 263.4655,124.1743 431.9106,343.3689 485.8994,634.9086 l 17.2765,97.1799 97.1798,-366.0443 c 53.9889,-201.9182 106.8979,-380.0813 118.7754,-398.4375 64.7866,-96.1001 209.4767,-99.3395 275.343,-6.4786 46.4304,64.7865 43.1911,84.2225 -86.3821,567.9624 -66.9461,248.3486 -127.4136,464.3039 -134.972,479.4207 -38.872,74.5046 -111.217,107.9777 -232.152,107.9777 h -86.3821 v 328.252 c 0,180.3227 -5.3989,354.1667 -10.7978,385.4802 -14.037,74.5046 -58.3079,137.1316 -118.7754,171.6845 -45.3506,24.8348 -60.4674,26.9944 -228.9126,30.2337 l -181.4024,4.3191 c -72.6154,-172.1148 -91.5499,-335.1933 -97.8469,-470.2655 z"
       id="path1432"
       style="fill:#000080;stroke-width:1.07978"
       sodipodi:nodetypes="cccccccccccccccccsccccccccscsccccc" />
    <circle
       style="opacity:1;fill:#000080;stroke:#ffffff;stroke-width:0.0000000809832"
       id="path1748"
       cx="2712.4397"
       cy="-3890.2534"
       r="325.63297"
       transform="scale(1,-1)" />
    <path
       style="opacity:0.8;fill:#000080;stroke:#ffffff;stroke-width:7.5e-08"
       d="m 3722.9477,2577.8946 300.3072,270.04"
       id="path1924" />
    <path
       id="path1748-3"
       style="opacity:1;fill:#000080;stroke:#ffffff;stroke-width:0.000000612059"
       d="M 2681.6273,5050.4927 A 2461.0829,2461.0829 0 0 1 220.54693,2589.4124 2461.0829,2461.0829 0 0 1 2681.6273,128.33205 2461.0829,2461.0829 0 0 1 5142.7075,2589.4124 2461.0829,2461.0829 0 0 1 2681.6273,5050.4927 Z m 0,-495.4615 A 1965.601,1965.601 0 0 0 4647.1989,2589.4124 1965.601,1965.601 0 0 0 2681.6273,623.79352 1965.601,1965.601 0 0 0 716.00833,2589.4124 1965.601,1965.601 0 0 0 2681.6273,4555.0312 Z" />
  </g>
</svg>
